<?xml version="1.0" encoding="UTF-8"?>
<svg id="Layer_1" xmlns="http://www.w3.org/2000/svg" version="1.1" viewBox="0 0 1226.71 460.51">
  <!-- Generator: Adobe Illustrator 29.8.2, SVG Export Plug-In . SVG Version: 2.1.1 Build 3)  -->
  <g>
    <path d="M238.87,258.11l8.61,141.32h-29.89l-4.81-133.47h-9.37v133.47h-29.89V54.99h36.22c12.49,0,21.91,2.37,28.24,7.09,6.33,4.73,9.5,12.75,9.5,24.06v148.92c0,10.13-2.87,17.82-8.61,23.05ZM217.85,235.57V86.9c0-5.4-2.53-8.1-7.6-8.1h-6.84v166.4h7.09c4.89,0,7.34-3.21,7.34-9.62Z"/>
    <path d="M259.64,372.08V54.99h30.65v314.56c0,5.74,2.36,8.61,7.09,8.61s7.09-2.87,7.09-8.61V54.99h30.65v317.09c0,10.3-3.17,18.03-9.5,23.17-6.33,5.15-15.75,7.72-28.24,7.72-25.16,0-37.74-10.3-37.74-30.9Z"/>
    <path d="M356.77,393.48c-6.5-6.16-9.75-15.24-9.75-27.23V88.42c0-11.99,3.25-21.06,9.75-27.23,6.5-6.16,16.16-9.24,29-9.24,25.66,0,38.5,11.06,38.5,33.18v123.6l-31.41-.25v-124.86c0-4.9-2.37-7.35-7.09-7.35s-7.09,2.45-7.09,7.35v289.74c0,4.9,2.36,7.35,7.09,7.35,3.21,0,5.66-.67,7.35-2.03v-139.04h-6.33v-19.5h37.74v172.73c-9.62,6.59-22.54,9.88-38.75,9.88-12.83,0-22.5-3.08-29-9.24Z"/>
    <path d="M437.18,54.99h37.23c12.66,0,21.95,2.2,27.86,6.59,5.91,4.39,8.86,11.31,8.86,20.77v122.58c0,11.48-3.97,19.17-11.9,23.05,8.27,3.55,12.41,10.89,12.41,22.03v122.08c0,9.46-2.91,16.38-8.74,20.77-5.83,4.39-15.16,6.59-27.99,6.59h-37.74V54.99ZM470.61,217.59c7.26,0,10.89-3.55,10.89-10.64v-122.33c0-5.4-2.53-8.1-7.6-8.1h-6.84v141.07h3.55ZM473.91,377.65c5.07,0,7.6-2.62,7.6-7.85v-121.82c0-7.26-3.63-10.89-10.89-10.89h-3.55v140.56h6.84Z"/>
    <path d="M544.82,291.54l-24.31-236.55h31.41l7.6,182.61,1.52-.25,7.09-182.35h31.66l-23.81,236.55v107.89h-31.15v-107.89Z"/>
  </g>
  <g>
    <path d="M636.73,54.99h31.15v320.13h21.02v24.31h-52.17V54.99Z"/>
    <path d="M699.03,54.99h58v23.55h-26.59v139.81h21.02v19.75h-21.02v138.28h26.85v23.05h-58.25V54.99Z"/>
    <path d="M806.67,340.93h-13.17l-1.52,58.51h-30.9l20.26-344.45h37.48l20.52,344.45h-31.15l-1.52-58.51ZM805.91,320.16l-5.07-189.7h-1.52l-5.07,189.7h11.65Z"/>
    <path d="M854.16,393.48c-6.5-6.16-9.75-15.24-9.75-27.23V88.42c0-11.99,3.25-21.06,9.75-27.23,6.5-6.16,16.16-9.24,29-9.24,25.66,0,38.5,11.06,38.5,33.18v123.6l-31.41-.25v-124.86c0-4.9-2.37-7.35-7.09-7.35s-7.09,2.45-7.09,7.35v289.74c0,4.9,2.36,7.34,7.09,7.34,3.21,0,5.66-.67,7.35-2.03v-139.04h-6.33v-19.5h37.74v172.73c-9.62,6.58-22.54,9.88-38.75,9.88-12.83,0-22.5-3.08-29-9.24Z"/>
    <path d="M934.32,372.08V54.99h30.65v314.56c0,5.74,2.36,8.61,7.09,8.61s7.09-2.87,7.09-8.61V54.99h30.65v317.09c0,10.3-3.16,18.03-9.5,23.17-6.33,5.15-15.75,7.73-28.24,7.73-25.16,0-37.74-10.3-37.74-30.9Z"/>
    <path d="M1022.46,54.99h58v23.55h-26.59v139.81h21.02v19.75h-21.02v138.28h26.85v23.05h-58.25V54.99Z"/>
  </g>
  <g>
    <g>
      <path d="M126.86,76.09c0,4.52-3.16,7.71-7.71,7.71s-7.75-3.19-7.75-7.71,3.19-7.75,7.75-7.75,7.71,3.19,7.71,7.75ZM123.84,76.09c0-2.46-1.93-3.72-4.69-3.72s-4.72,1.26-4.72,3.72,1.93,3.69,4.72,3.69,4.69-1.26,4.69-3.69Z"/>
      <path d="M114.6,67.42h-2.79v-2.16h-1.23c-3.43,0-5.45-2.06-5.45-5.35,0-2.66,1.26-4.29,3.59-4.92l.83,2.56c-.93.33-1.56.96-1.56,1.99,0,1.23.93,1.76,2.29,1.76h1.53v-3.92h2.79v3.92h11.87v3.96h-11.87v2.16Z"/>
    </g>
    <g>
      <path d="M126.47,373.05l-44.16,13.71v.36h44.16v10.33h-56.09v-17.54l40.78-12.29v-.27l-40.78-11.66v-17.18h56.09v11.22h-44.16v.36l44.16,13.44v9.53Z"/>
      <path d="M87.2,302.9v-10.68h39.26v10.68h-6.41c4.54,2.05,7.48,6.68,7.48,12.64,0,10.42-7.03,13.98-15.76,13.98h-24.57v-10.68h22.44c5.96,0,9.53-2.23,9.53-7.48s-4.27-8.46-10.95-8.46h-21.01Z"/>
      <path d="M113.11,276.73c4.72-.62,7.12-4.18,7.12-9.61,0-3.92-1.34-7.12-4.18-7.12-2.67,0-3.83,1.78-4.45,5.7l-1.07,6.23c-1.34,8.37-4.45,13-11.75,13s-12.64-6.32-12.64-16.29c0-10.86,4.9-17.36,13.62-18.07l.36,8.81c-4.45.71-6.68,3.74-6.68,9.35,0,3.83,1.69,6.32,4.36,6.32,2.14,0,3.38-1.42,3.83-4.27l1.25-7.48c1.34-8.28,4.81-13.18,12.2-13.18,8.01,0,12.46,6.94,12.46,17.09s-4.45,18.07-14.07,18.79l-.36-9.26Z"/>
      <path d="M113.65,205.96c8.72,2.05,13.89,8.81,13.89,18.87,0,12.11-7.75,20.83-20.12,20.83s-21.28-8.81-21.28-20.57c0-12.82,8.9-19.41,19.59-19.41h3.83v29.47c5.79-.36,9.88-4.9,9.88-10.68,0-5.25-2.23-8.37-6.68-9.88l.89-8.64ZM102.87,216.11c-4.54.36-8.9,3.12-8.9,9.08s4.01,8.81,8.9,9.79v-18.87Z"/>
      <path d="M87.2,172.67v-10.68h39.26v10.68h-6.41c4.54,2.05,7.48,6.68,7.48,12.64,0,10.42-7.03,13.98-15.76,13.98h-24.57v-10.68h22.44c5.96,0,9.53-2.23,9.53-7.48s-4.27-8.46-10.95-8.46h-21.01Z"/>
      <path d="M86.14,104.04c0-10.59,7.3-13.98,15.85-13.98h24.48v10.68h-22.35c-6.05,0-9.53,1.87-9.53,7.12s4.27,8.28,10.86,8.28h21.01v10.68h-22.35c-6.05,0-9.53,1.96-9.53,7.12s4.27,8.28,10.86,8.28h21.01v10.68h-39.26v-10.68h6.41c-4.45-1.96-7.48-6.41-7.48-12.37,0-6.94,3.3-10.86,8.1-12.55-4.63-2.14-8.1-6.85-8.1-13.27Z"/>
    </g>
    <g>
      <path d="M78.43,326.64h-17.49v7.41h-3.46v-19.08h3.46v7.51h17.49v4.16Z"/>
      <path d="M78.43,308.53v3.99h-20.94v-3.99h8.68c-1.66-.73-2.79-2.59-2.79-4.79,0-3.92,2.66-5.35,5.92-5.35h9.14v3.99h-8.34c-2.26,0-3.56.9-3.56,2.86s1.6,3.29,4.06,3.29h7.85Z"/>
      <path d="M73.64,281.24c3.26.76,5.18,3.29,5.18,7.05,0,4.52-2.89,7.78-7.51,7.78s-7.95-3.29-7.95-7.68c0-4.79,3.32-7.25,7.31-7.25h1.43v11c2.16-.13,3.69-1.83,3.69-3.99,0-1.96-.83-3.12-2.49-3.69l.33-3.23ZM69.62,285.03c-1.7.13-3.32,1.16-3.32,3.39s1.5,3.29,3.32,3.66v-7.05Z"/>
      <path d="M57.48,268.31h20.94v4.15h-20.94v-4.15Z"/>
      <path d="M78.43,260.77v3.99h-14.66v-3.99h2.39c-1.66-.73-2.79-2.59-2.79-4.79,0-3.92,2.66-5.35,5.92-5.35h9.14v3.99h-8.34c-2.26,0-3.56.9-3.56,2.86s1.6,3.29,4.06,3.29h7.85Z"/>
      <path d="M78.43,243.45v3.99h-14.66v-3.99h2.39c-1.66-.73-2.79-2.59-2.79-4.79,0-3.92,2.66-5.35,5.92-5.35h9.14v3.99h-8.34c-2.26,0-3.56.9-3.56,2.86s1.6,3.29,4.06,3.29h7.85Z"/>
      <path d="M73.64,216.16c3.26.76,5.18,3.29,5.18,7.05,0,4.52-2.89,7.78-7.51,7.78s-7.95-3.29-7.95-7.68c0-4.79,3.32-7.25,7.31-7.25h1.43v11c2.16-.13,3.69-1.83,3.69-3.99,0-1.96-.83-3.12-2.49-3.69l.33-3.23ZM69.62,219.95c-1.7.13-3.32,1.16-3.32,3.39s1.5,3.29,3.32,3.66v-7.05Z"/>
      <path d="M67.69,203.67c-.43.76-.63,1.43-.63,2.39,0,2.06,1.46,3.46,4.12,3.46h7.25v3.99h-14.66v-3.99h2.79c-1.66-.53-3.19-2.06-3.19-4.09,0-.9.23-1.63.6-2.06l3.72.3Z"/>
      <path d="M72.91,176.91v-.13l-15.42-3.82v-3.99l20.94,5.42v4.59l-15.09,3.96v.13l15.09,3.99v4.55l-20.94,5.42v-4.16l15.39-3.86v-.13l-15.39-4.06v-3.82l15.42-4.09Z"/>
      <path d="M73.64,153.94c3.26.76,5.18,3.29,5.18,7.05,0,4.52-2.89,7.78-7.51,7.78s-7.95-3.29-7.95-7.68c0-4.79,3.32-7.25,7.31-7.25h1.43v11c2.16-.13,3.69-1.83,3.69-3.99,0-1.96-.83-3.13-2.49-3.69l.33-3.23ZM69.62,157.73c-1.7.13-3.32,1.16-3.32,3.39s1.5,3.29,3.32,3.66v-7.05Z"/>
      <path d="M73.44,148.83c1.76-.23,2.66-1.56,2.66-3.59,0-1.46-.5-2.66-1.56-2.66-1,0-1.43.66-1.66,2.13l-.4,2.33c-.5,3.13-1.66,4.86-4.39,4.86s-4.72-2.36-4.72-6.08c0-4.06,1.83-6.48,5.09-6.75l.13,3.29c-1.66.27-2.49,1.4-2.49,3.49,0,1.43.63,2.36,1.63,2.36.8,0,1.26-.53,1.43-1.6l.47-2.79c.5-3.09,1.79-4.92,4.55-4.92,2.99,0,4.65,2.59,4.65,6.38s-1.66,6.75-5.25,7.01l-.13-3.46Z"/>
      <path d="M66.56,135.9v2.09h-2.36l-.17-1c-.23-1.43-.96-1.83-2.33-2.16l-1.99-.47v-2.43h4.06v-3.99h2.79v3.99h7.25c1.26,0,1.83-.56,1.83-1.76,0-.8-.3-1.63-.7-2.49h2.63c.8,1.06,1.26,2.26,1.26,4.06,0,2.26-1,4.15-4.12,4.15h-8.14Z"/>
    </g>
  </g>
</svg>