<?xml version="1.0" encoding="UTF-8"?>
<svg id="Layer_2" data-name="Layer 2" xmlns="http://www.w3.org/2000/svg" viewBox="0 0 568.82 200">
  <defs>
    <style>
      .cls-1 {
        fill: #00a69c;
      }

      .cls-1, .cls-2, .cls-3 {
        stroke-width: 0px;
      }

      .cls-2 {
        fill: #d6de23;
      }

      .cls-3 {
        fill: #fff;
      }
    </style>
  </defs>
  <g id="Layer_1-2" data-name="Layer 1">
    <g>
      <path class="cls-3" d="M45.47,61.59c0-2.48-.57-4.58-1.7-6.28-1.13-1.7-2.59-3.14-4.36-4.31-1.78-1.17-3.73-2.14-5.87-2.92-2.13-.78-4.18-1.48-6.14-2.11-2.85-.93-5.75-2.04-8.7-3.33-2.95-1.3-5.63-2.89-8.06-4.78-2.43-1.89-4.41-4.12-5.95-6.7-1.54-2.58-2.31-5.61-2.31-9.09s.77-6.6,2.31-9.34c1.54-2.74,3.55-5.06,6.03-6.95,2.48-1.89,5.3-3.33,8.45-4.31,3.15-.98,6.32-1.47,9.51-1.47,3.52,0,6.91.58,10.17,1.75,3.26,1.17,6.15,2.81,8.67,4.92,2.52,2.11,4.54,4.67,6.06,7.67,1.52,3,2.31,6.36,2.39,10.06h-10.56c-.3-2.33-.87-4.46-1.72-6.36-.85-1.91-1.98-3.55-3.39-4.92-1.41-1.37-3.09-2.44-5.03-3.2-1.95-.76-4.14-1.14-6.59-1.14-1.96,0-3.88.28-5.75.83-1.87.56-3.54,1.39-5,2.5-1.46,1.11-2.63,2.48-3.5,4.11-.87,1.63-1.31,3.52-1.31,5.67.04,2.33.63,4.31,1.78,5.92,1.15,1.61,2.6,2.97,4.36,4.09,1.76,1.11,3.67,2.04,5.72,2.78,2.06.74,3.99,1.39,5.81,1.95,2,.63,4.02,1.34,6.06,2.14,2.04.8,4,1.72,5.89,2.75,1.89,1.04,3.65,2.2,5.28,3.5,1.63,1.3,3.06,2.77,4.28,4.42,1.22,1.65,2.18,3.47,2.86,5.45.69,1.98,1.03,4.18,1.03,6.59,0,3.63-.81,6.8-2.42,9.51-1.61,2.71-3.7,4.96-6.25,6.75-2.56,1.8-5.45,3.15-8.67,4.06-3.22.91-6.45,1.36-9.67,1.36-3.6,0-7.12-.56-10.56-1.67-3.45-1.11-6.53-2.72-9.26-4.81-2.72-2.09-4.94-4.65-6.64-7.67-1.71-3.02-2.61-6.46-2.72-10.31h10.51c.33,2.52,1.02,4.75,2.06,6.7,1.04,1.95,2.37,3.59,4,4.95,1.63,1.35,3.51,2.37,5.64,3.06,2.13.69,4.46,1.03,6.98,1.03,2,0,3.97-.25,5.92-.75,1.95-.5,3.68-1.28,5.2-2.33,1.52-1.06,2.76-2.39,3.72-4,.96-1.61,1.45-3.53,1.45-5.75Z"/>
      <path class="cls-3" d="M160.22,9.9h-25.02v72.15h-10V9.9h-25.02V1.11h60.04v8.78Z"/>
      <path class="cls-3" d="M259.11,1.11l.11,54.81c-.08,3.78-.76,7.32-2.06,10.62-1.3,3.3-3.11,6.18-5.45,8.64-2.33,2.46-5.11,4.41-8.34,5.84-3.23,1.43-6.76,2.14-10.62,2.14s-7.5-.7-10.73-2.11c-3.23-1.41-5.99-3.34-8.28-5.81-2.3-2.46-4.09-5.36-5.39-8.67-1.3-3.32-1.96-6.86-2-10.64l.11-54.81h9.78l.22,54.81c.04,2.41.42,4.72,1.14,6.95.72,2.22,1.76,4.19,3.11,5.89,1.35,1.7,3.04,3.08,5.06,4.11,2.02,1.04,4.34,1.56,6.98,1.56s4.95-.51,6.95-1.53c2-1.02,3.68-2.39,5.03-4.11,1.35-1.72,2.38-3.7,3.08-5.92.7-2.22,1.09-4.54,1.17-6.95l.17-54.81h9.95Z"/>
      <path class="cls-1" d="M308.72,82.05V1.11h18.73c5.63.07,10.66,1.03,15.09,2.86,4.43,1.83,8.17,4.39,11.23,7.67,3.06,3.28,5.39,7.21,7,11.78,1.61,4.58,2.44,9.64,2.48,15.2v5.95c-.04,5.56-.86,10.63-2.48,15.2-1.61,4.58-3.95,8.51-7,11.78-3.05,3.28-6.8,5.84-11.23,7.67-4.43,1.83-9.46,2.77-15.09,2.81h-18.73Z"/>
      <path class="cls-3" d="M413.71,1.11h48.92v8.95h-19.4v63.09h19.4v8.89h-48.92v-8.89h18.95V10.06h-18.95V1.11Z"/>
      <path class="cls-2" d="M568.82,46.25c-.04,2.89-.29,5.81-.75,8.75-.46,2.95-1.18,5.79-2.14,8.53-.96,2.74-2.2,5.3-3.7,7.67-1.5,2.37-3.29,4.45-5.36,6.23-2.08,1.78-4.46,3.18-7.15,4.2-2.69,1.02-5.7,1.53-9.03,1.53s-6.34-.51-9.03-1.53c-2.69-1.02-5.07-2.42-7.14-4.2-2.08-1.78-3.87-3.86-5.39-6.25-1.52-2.39-2.77-4.96-3.75-7.7-.98-2.74-1.72-5.58-2.2-8.51-.48-2.93-.74-5.84-.78-8.73v-9.23c.04-2.89.29-5.81.75-8.75.46-2.95,1.19-5.79,2.17-8.53.98-2.74,2.22-5.31,3.72-7.7,1.5-2.39,3.29-4.48,5.36-6.28,2.08-1.8,4.45-3.2,7.14-4.23,2.69-1.02,5.7-1.53,9.03-1.53s6.35.51,9.06,1.53c2.7,1.02,5.1,2.42,7.17,4.2,2.08,1.78,3.86,3.86,5.36,6.25,1.5,2.39,2.74,4.96,3.72,7.7.98,2.74,1.7,5.6,2.17,8.56.46,2.97.71,5.89.75,8.78v9.23Z"/>
      <path class="cls-3" d="M47.33,161.48H13.53v28.68h39.41v8.73H3.25v-80.93h49.2v8.78H13.53v26.02h33.8v8.73Z"/>
      <path class="cls-3" d="M147.58,178.43c0-2.48-.57-4.58-1.7-6.28-1.13-1.7-2.59-3.14-4.36-4.31-1.78-1.17-3.73-2.14-5.87-2.92-2.13-.78-4.18-1.48-6.14-2.11-2.85-.93-5.75-2.04-8.7-3.33-2.95-1.3-5.63-2.89-8.06-4.78-2.43-1.89-4.41-4.12-5.95-6.7-1.54-2.58-2.31-5.61-2.31-9.09s.77-6.6,2.31-9.34c1.54-2.74,3.55-5.06,6.03-6.95,2.48-1.89,5.3-3.33,8.45-4.31,3.15-.98,6.32-1.47,9.51-1.47,3.52,0,6.91.58,10.17,1.75,3.26,1.17,6.15,2.81,8.67,4.92,2.52,2.11,4.54,4.67,6.06,7.67,1.52,3,2.31,6.36,2.39,10.06h-10.56c-.3-2.33-.87-4.46-1.72-6.36-.85-1.91-1.98-3.55-3.39-4.92-1.41-1.37-3.09-2.44-5.03-3.2-1.94-.76-4.14-1.14-6.59-1.14-1.97,0-3.88.28-5.75.83-1.87.56-3.54,1.39-5,2.5-1.46,1.11-2.63,2.48-3.5,4.11-.87,1.63-1.31,3.52-1.31,5.67.04,2.33.63,4.31,1.78,5.92,1.15,1.61,2.6,2.97,4.36,4.09,1.76,1.11,3.67,2.04,5.73,2.78,2.06.74,3.99,1.39,5.81,1.95,2,.63,4.02,1.34,6.06,2.14,2.04.8,4,1.72,5.89,2.75,1.89,1.04,3.65,2.2,5.28,3.5,1.63,1.3,3.06,2.77,4.28,4.42,1.22,1.65,2.18,3.47,2.86,5.45.69,1.98,1.03,4.18,1.03,6.59,0,3.63-.8,6.8-2.42,9.51-1.61,2.71-3.7,4.96-6.25,6.75-2.56,1.8-5.45,3.15-8.67,4.06-3.22.91-6.45,1.36-9.67,1.36-3.6,0-7.12-.56-10.56-1.67-3.45-1.11-6.53-2.72-9.25-4.81-2.72-2.09-4.94-4.65-6.64-7.67-1.71-3.02-2.61-6.46-2.73-10.31h10.51c.33,2.52,1.02,4.75,2.06,6.7,1.04,1.95,2.37,3.59,4,4.95,1.63,1.35,3.51,2.37,5.64,3.06,2.13.69,4.45,1.03,6.98,1.03,2,0,3.97-.25,5.92-.75,1.95-.5,3.68-1.28,5.2-2.33,1.52-1.06,2.76-2.39,3.72-4,.96-1.61,1.45-3.53,1.45-5.75Z"/>
      <path class="cls-3" d="M213.55,152.75h33.8s0-26.02,0-26.02h-38.91v-8.78h49.2v80.93h-49.69v-8.73h39.41s0-28.68,0-28.68h-33.8v-8.73Z"/>
      <path class="cls-3" d="M322.25,117.95l13.18,40.47,14.23-40.47h12.79v80.93h-10.01v-32.3l.84-33.8-14.95,43.58h-5.89l-13.73-42.41.83,32.63v32.3h-10.01v-80.93h12.73Z"/>
    </g>
  </g>
</svg>